<svg xmlns="http://www.w3.org/2000/svg" viewBox="0 0 64 64"><g stroke="#3e2716" stroke-width="1"><path d="M4 44 L24 34 L44 44 L24 54 Z" fill="#a0703c"/><path d="M24 34 L44 24 L60 32 L44 44 Z" fill="#b5834a"/><path d="M4 44 L24 54 L24 58 L4 48 Z" fill="#6b4420"/><path d="M24 54 L44 44 L44 48 L24 58 Z" fill="#5a3a1e"/><path d="M44 44 L60 32 L60 36 L44 48 Z" fill="#5a3a1e"/></g><path d="M14 39 L34 29 M34 49 L52 37" stroke="#3e2716" stroke-width="1"/><g fill="#c39bff"><circle cx="50" cy="18" r="2"/><circle cx="56" cy="22" r="1.4"/><circle cx="44" cy="14" r="1.2"/></g><path d="M40 10 L52 20" stroke="#c39bff" stroke-width="2" stroke-linecap="round"/></svg>
